# xmcd
#
# Track frame offsets:
#	150
#	14653
#	27618
#	42829
#	59205
#	68683
#	84985
#	102694
#	110387
#	125102
#	139486
#	152199
#	161334
#	175859
#	195427
#	205209
#	218950
#	231375
#	249773
#	266371
#
# Disc length: 3706 seconds
#
# Revision: 0
# Processed by: cddbd v1.5.1PL2 Copyright (c) Steve Scherf et al.
# Submitted via: audiograbber 1.83.01
#
DISCID=290e7814
DTITLE=Elvis Presley - Elvis Country
DYEAR=2006
DGENRE=Country
TTITLE0=For The Good Times
TTITLE1=Take Care Of Her
TTITLE2=She Wears My Ring
TTITLE3=Always On My Mind
TTITLE4=Snowbird
TTITLE5=Green, Green Grass Of Home
TTITLE6=Tomorrow Never Comes
TTITLE7=A Hundred Years From Now
TTITLE8=Kentucky Rain
TTITLE9=Good Time Charlie's Got The Blues
TTITLE10=It Ain't No Big Thing
TTITLE11=Are You Sincere
TTITLE12=Release Me
TTITLE13=Funny How Time Slips Away
TTITLE14=I'm So Lonesome I Could Cry
TTITLE15=There's A Honky Tonk Angel
TTITLE16=If I'm A Fool (For Loving You)
TTITLE17=Pieces Of My Life
TTITLE18=Blue Eyes Crying In The Rain
TTITLE19=I Can't Stop Loving You
EXTD=
EXTT0=
EXTT1=
EXTT2=
EXTT3=
EXTT4=
EXTT5=
EXTT6=
EXTT7=
EXTT8=
EXTT9=
EXTT10=
EXTT11=
EXTT12=
EXTT13=
EXTT14=
EXTT15=
EXTT16=
EXTT17=
EXTT18=
EXTT19=
PLAYORDER=
